<?xml version="1.0" encoding="UTF-8"?><svg id="Layer_2" xmlns="http://www.w3.org/2000/svg" viewBox="0 0 2290.64 603.54"><defs><style>.cls-1{fill:#a97c50;stroke-width:0px;}</style></defs><g id="Layer_3"><path class="cls-1" d="M2286.61,57.66c-5.15-19.53-16.13-38.35-33.51-48.62-28.57-16.89-63.18-6.46-92.73,1.83-31.38,8.79-62.41,14.82-93.86,4.01-4.74-1.63-9.59,2.36-8.75,7.31.28,1.64.9,3.23,1.83,4.58,2.95,4.28,8.01,6.55,12.94,8.19,9.39,3.14,19.28,4.77,29.19,4.81,2.32.01,4.77-.04,6.81,1.08,2.67,1.46,4.14,5.74.17,7.34-.83.34-1.74.45-2.63.45l-50.54-.38c-3.08-.02-6.48.06-8.42,2.86-1.89,2.71-1.34,6.38.88,8.82,4.07,4.47,10.17,4.36,15.77,4.12,12.62-.54,25.25-1.09,37.87-1.63,3.32-.14,5.53,3.42,3.9,6.31-6.78,12.05-14.43,23.6-22.88,34.54-5.84,7.57-12.1,14.87-19.38,21.07-8.59,7.31-18.44,12.94-27.98,18.96-20.33,12.82-39.58,27.63-61.51,37.47-18.9,8.48-40.6,12.97-60.55,8.39-7.67-1.76-13.87,6.4-9.84,13.15,1.08,1.81,2.49,3.43,4.14,4.69,6.31,4.77,14.78,5.43,22.68,5.04,5.15-.25,10.36-.86,15.5-.79,2.09.03,2.82,2.79,1.02,3.86-6.49,3.85-15.13,10.22-17.7,11.91-8.02,5.26-14.47,12.65-22.42,17.99-11.53,7.74-23.21,15.27-35.01,22.59-35.67,22.11-71,42.51-110.35,56.68-40.31,14.52-80.1,30.46-119.28,47.79-9.32,4.12-18.77,8.36-28.88,9.62-10.11,1.26-21.17-.91-28.36-8.12,2.07-5.87,7.92-9.46,13.53-12.14,5.62-2.69,11.72-5.19,15.38-10.23.04-.05.07-.1.11-.15,4.84-6.91-3.15-15.62-10.55-11.56-15.09,8.27-30.18,16.54-45.27,24.82-3.13,1.71-7.11,3.44-9.89.41-2.36-2.57-2.08-6.59.35-9.09,7.34-7.56,15.08-14.73,23.18-21.48,4.45-3.71,2.33-11.19-3.44-11.67-.23-.02-.45-.03-.68-.03-4.51.03-8.5,2.76-12.17,5.39-40.95,29.27-79.05,54.48-128.97,65.74-45.68,10.3-93.05,11.34-139.65,9.29-27.84-1.22-64.71.81-90.81-8.58,3.48-9.63,10.99-18.52,18.32-25.65,4.56-4.43,9.97-9.34,9.72-15.7-15.62-1.89-29.95,7.94-42.78,17.04-12.83,9.1-27.79,18.38-43.2,15.23,11.74-15.75,27.62-28.38,45.62-36.26,3.98-1.74,8.91-4.69,7.52-9.1-.84-2.66-3.52-4.27-6.3-4.12-8.95.49-17.23,4.06-25.27,7.81-52.91,24.62-96.4,63.07-154.84,75.74-62.36,13.52-125.83-4.64-186.71-17.35-31.23-6.52-62.99-12.32-95.01-11.92-28.42.36-55.27,11.55-83.29,8.64,4.1-15.16,13.94-29.89,24.2-41.63,4.78-5.47,10.45-12.19,7.78-19.13-1.72-4.46-6.25-7.1-11.03-7.05-8.51.08-14.6,6-19.77,11.99-20.5,23.76-42.04,54.28-73.07,64.67-44.73,14.99-88.84-19.67-129.07-44.31-37.25-22.81-78.95-38.23-122.01-45.44-21.21-3.55-42.23-3.73-63.59-4.95-8.78-.5-18.15-1.27-26.64-3.81-6.32-1.89-19.5-13.3-24.62-13.26,16.6-.13,33.19-.26,49.79-.39,8.22-.06,17.2-.38,22.63-7.54,2.78-3.66,3.01-8.81.09-12.35-3.15-3.83-8-3.44-12.39-3.01-23.52,2.29-47.22,2.65-70.79,1.07-3.52-.24-8.37-2.98-6.33-5.86,19.23-3.27,38.47-6.54,57.7-9.8,5.09-.86,10.46-1.86,14.34-5.28,1.91-1.68,3.23-4.17,3.62-6.68.41-2.58-.16-5.19-2.07-6.98-32.24,3.13-64.67,3.37-97.02,2.34-27.86-.88-57.83-6.52-85.05-1.43-26.81,5.02-51.9,13.94-76.32,24.6,3.44,2.51,6.83,5.1,10.2,7.76,45.05,35.55,76.61,84.12,109.42,130.86,44.55,33.83,88.19,68.82,131.5,104.23,22.27,18.21,44.57,36.38,66.89,54.52,3.53-1.69,7.45-2.69,11.54-2.82,80.89-2.49,161.6,5.13,241.71,15.72,66.97,8.85,133.65,19.69,200.56,28.86,76.15-4.24,152.26-9.12,228.32-14.61,168.84-12.19,337.47-27.27,505.89-44.31,67.91-6.87,135.78-14.07,203.63-21.5,15.29-17.96,31.81-34.85,49.24-50.82-.23-29.39,6.8-58.39,22.11-84.16,19.96-33.6,51.86-58.1,89.04-69.74,16.91-5.3,34.88,9.07,34.65,26.4,0,.51-.03,1.02-.04,1.53,62.47-29.83,127.55-54.46,194.5-72.08,13.23-14.51,38.78-21.56,56.39-24.52,16.02-2.69,32.72-4.97,49.43-5.98,53.4-51.17,99.86-116.91,81.64-186.08Z"/></g></svg>